<?xml version="1.0" encoding="UTF-8" standalone="no"?>
<!-- Created with Inkscape (http://www.inkscape.org/) -->

<svg
   width="136mm"
   height="136mm"
   viewBox="0 0 136 136"
   version="1.1"
   id="svg1"
   xml:space="preserve"
   inkscape:version="1.4 (86a8ad7, 2024-10-11)"
   sodipodi:docname="mine.svg"
   xmlns:inkscape="http://www.inkscape.org/namespaces/inkscape"
   xmlns:sodipodi="http://sodipodi.sourceforge.net/DTD/sodipodi-0.dtd"
   xmlns="http://www.w3.org/2000/svg"
   xmlns:svg="http://www.w3.org/2000/svg"><sodipodi:namedview
     id="namedview1"
     pagecolor="#ffffff"
     bordercolor="#111111"
     borderopacity="1"
     inkscape:showpageshadow="0"
     inkscape:pageopacity="0"
     inkscape:pagecheckerboard="1"
     inkscape:deskcolor="#d1d1d1"
     inkscape:document-units="mm"
     inkscape:zoom="0.71891835"
     inkscape:cx="397.12437"
     inkscape:cy="561.25984"
     inkscape:window-width="1920"
     inkscape:window-height="1009"
     inkscape:window-x="-8"
     inkscape:window-y="-8"
     inkscape:window-maximized="1"
     inkscape:current-layer="layer1" /><defs
     id="defs1" /><g
     inkscape:label="Layer 1"
     inkscape:groupmode="layer"
     id="layer1"><path
       d="m 67.876916,0.54338473 c 0.87658,0.350283 1.31245,0.81989997 1.85209,1.58749997 0.32394,0.84801 0.32394,0.84801 0.62735,1.860351 0.0555,0.184122 0.11107,0.368243 0.16828,0.557944 0.68936,2.312102 1.3111,4.643452 1.93288,6.9744133 0.12136,0.452363 0.2428,0.904704 0.36432,1.357023 0.29288,1.090821 0.5847,2.181919 0.87592,3.273186 0.18731,0.03176 0.37461,0.06352 0.5676,0.09625 11.84173,2.0334 22.26639,6.207955 31.182404,14.455835 1.02328,-0.38295 1.9518,-0.85696 2.90318,-1.3932 0.30372,-0.17019 0.60743,-0.34038 0.92036,-0.51573 0.31854,-0.1794 0.63704,-0.35889 0.95549,-0.53847 6.98283,-3.93656 6.98283,-3.93656 8.71472,-3.9026 1.11274,0.31528 1.67733,0.56439 2.38125,1.48828 0.46339,1.56396 0.21022,2.98393 -0.52297,4.43177 -0.22928,0.41033 -0.46312,0.81814 -0.70073,1.2237 -0.12509,0.22152 -0.25017,0.44304 -0.37905,0.67128 -0.77201,1.3546 -1.57811,2.68761 -2.39288,4.01681 -0.18191,0.29809 -0.36383,0.59618 -0.55125,0.9033 -0.36046,0.58778 -0.72429,1.17351 -1.09167,1.757 -0.1652,0.26808 -0.3304,0.53615 -0.50061,0.81235 -0.14913,0.2379 -0.29826,0.47579 -0.45191,0.72089 -0.33501,0.60865 -0.33501,0.60865 -0.24185,1.18268 0.25159,0.59809 0.53702,1.15508 0.85499,1.72102 3.35151,6.09865 5.41383,12.30384 6.50709,19.17092 0.1631,0.007 0.32619,0.0144 0.49422,0.0218 2.04646,0.1341 3.96866,0.58234 5.93982,1.12345 0.53085,0.14539 1.06275,0.28629 1.59493,0.42671 4.1103,1.10619 4.1103,1.10619 5.46478,2.66134 0.49202,0.98403 0.37804,2.19201 0.11576,3.24115 -1.90329,2.31704 -6.21624,2.73638 -8.96276,3.43958 -0.2759,0.0716 -0.5518,0.14316 -0.83606,0.21691 -1.29183,0.32398 -2.46694,0.61211 -3.81069,0.51069 0.0113,0.28275 0.0225,0.56549 0.0341,0.8568 -0.0102,6.6386 -2.76167,14.80144 -6.45955,20.33054 -0.28674,0.7709 -0.11135,1.29992 0.0754,2.096 0.41909,0.86432 0.41909,0.86432 0.96325,1.74046 0.0963,0.16179 0.19265,0.32357 0.29189,0.49026 0.30689,0.514643 0.61707,1.027193 0.92768,1.539593 3.9026,6.48471 3.9026,6.48471 3.9026,8.40052 -0.32023,1.20087 -0.56777,1.6999 -1.60404,2.39779 -1.47646,0.49952 -3.01531,0.0152 -4.39643,-0.59357 -0.73387,-0.38036 -1.45201,-0.7803 -2.16854,-1.19237 -0.37992,-0.21295 -0.37992,-0.21295 -0.76752,-0.4302 -0.72771,-0.40931 -1.45235,-0.82351 -2.17597,-1.23998 -0.28496,-0.16326 -0.28496,-0.16326 -0.57568,-0.32982 -0.87093,-0.49999 -1.73786,-1.00612 -2.59932,-1.52226 -1.02195,0.60268 -1.79702,1.25395 -2.61276,2.11666 -7.502014,7.65281 -20.434794,13.65649 -31.185054,13.7657 -0.19734,-0.002 -0.39469,-0.005 -0.59802,-0.007 -0.0263,0.1461 -0.0526,0.2922 -0.0797,0.44273 -0.38847,2.05287 -0.9219,4.05866 -1.47472,6.07263 -0.0897,0.33629 -0.1794,0.67258 -0.27182,1.01906 -1.09869,4.01045 -1.09869,4.01045 -2.45669,5.56245 -1.02487,0.5466 -1.98894,0.66153 -3.12539,0.39688 -2.52267,-1.73472 -3.01518,-5.34001 -3.763018,-8.15965 -0.158266,-0.5962 -0.31999,-1.19138 -0.482206,-1.78652 -0.10269,-0.3808 -0.205189,-0.76165 -0.307474,-1.14256 -0.04794,-0.17693 -0.09587,-0.35386 -0.145264,-0.53615 -0.194488,-0.73764 -0.329077,-1.36715 -0.329077,-2.13382 -0.159533,-0.0128 -0.319066,-0.0255 -0.483433,-0.0387 -6.347288,-0.56362 -12.468114,-2.74462 -18.0374,-5.78214 -0.157998,-0.0845 -0.315997,-0.169 -0.478782,-0.25606 -4.895717,-2.62794 -9.172233,-6.06382 -13.014968,-10.06269 -2.576849,1.20927 -5.011465,2.59716 -7.433268,4.09245 -1.723046,1.04524 -3.51623,2.12342 -5.597462,1.99297 -1.205186,-0.32139 -1.639617,-0.53206 -2.315104,-1.5875 -0.571257,-2.01748 0.256412,-3.68804 1.211813,-5.42919 0.650086,-1.13778 1.336179,-2.25247 2.029289,-3.36433 0.310664,-0.4984 0.619974,-0.99762 0.929251,-1.49688 0.411731,-0.664203 0.830161,-1.323473 1.253024,-1.980633 0.193978,-0.30928 0.387793,-0.61867 0.581425,-0.92817 0.174667,-0.27343 0.349335,-0.54685 0.529296,-0.82857 0.413883,-0.94623 0.359105,-1.39441 0.08049,-2.3764 -0.304877,-0.6856 -0.620911,-1.34908 -0.959115,-2.01745 -2.63024,-5.41845 -4.904327,-12.00111 -4.861719,-18.09089 -0.244639,-0.0108 -0.244639,-0.0108 -0.49422,-0.0218 -2.046464,-0.13409 -3.9686567,-0.58233 -5.9398217,-1.12343 -0.530847,-0.1454 -1.062748,-0.2863 -1.594929,-0.42672 -4.110299,-1.10619 -4.110299,-1.10619 -5.46478202,-2.66134 -0.429583,-0.85916 -0.40836999747,-1.71728 -0.264584,-2.64583 1.09144202,-1.95707 3.05439402,-2.29361 5.09729902,-2.90396 0.905738,-0.25482 1.814066,-0.4964 2.724446,-0.73406 0.305423,-0.0836 0.610847,-0.16712 0.925525,-0.25322 1.7956817,-0.47056 3.4190097,-0.73037 5.2756467,-0.60668 0.01685,-0.29113 0.01685,-0.29113 0.03404,-0.58814 0.133049,-1.9293 0.427882,-3.74133 0.908536,-5.61303 0.06983,-0.27326 0.139666,-0.54651 0.211615,-0.82805 0.858403,-3.24233 1.872536,-6.5073 3.593837,-9.40388 0.193,-0.33059 0.193,-0.33059 0.389899,-0.66786 0.248991,-0.41536 0.509432,-0.82415 0.782898,-1.22383 0.374971,-0.61963 0.589035,-1.0651 0.693756,-1.78354 -0.337292,-1.17298 -0.945583,-2.14375 -1.5875,-3.175 -0.17535,-0.29573 -0.3507,-0.59145 -0.531363,-0.89614 -0.561177,-0.94313 -1.138061,-1.8761 -1.717595,-2.80803 -4.142441,-6.66132 -4.142441,-6.66132 -4.101042,-8.73125 0.401172,-1.09794 0.823156,-1.80626 1.852083,-2.38125 1.400969,-0.5059 2.7655,-0.0471 4.067582,0.55494 0.696561,0.36514 1.382756,0.74484 2.067444,1.13178 0.249532,0.13856 0.499063,0.27711 0.756156,0.41987 0.791632,0.44107 1.580784,0.88627 2.369235,1.33299 0.267863,0.15169 0.535727,0.30338 0.811708,0.45967 1.584868,0.8993 3.166316,1.80442 4.744542,2.71533 1.006701,-0.64561 1.896865,-1.30855 2.761589,-2.1332 6.934994,-6.29706 18.053708,-12.418879 27.665494,-12.418879 0.03095,-0.299156 0.0619,-0.598312 0.09379,-0.906533 0.15655,-1.24533 0.455614,-2.429969 0.786774,-3.638926 0.09163,-0.338457 0.09163,-0.338457 0.185114,-0.683752 0.129118,-0.474704 0.259016,-0.949196 0.389657,-1.423484 0.197024,-0.7178863 0.38949,-1.4368943 0.581747,-2.1560703 2.182236,-8.04173997 2.182236,-8.04173997 5.900416,-7.33081797 z m -1.32291,8.99583297 c -0.72683,2.6282283 -1.45147,5.2570493 -2.17334,7.8866443 -0.33527,1.221053 -0.67129,2.441885 -1.00903,3.662265 -0.326,1.17809 -0.650028,2.3567 -0.972696,3.53571 -0.12335,0.44935 -0.247409,0.89851 -0.372191,1.34747 -0.174872,0.62964 -0.347195,1.25994 -0.518949,1.89044 -0.05195,0.18479 -0.10391,0.36958 -0.157439,0.55998 -0.282603,1.0494 -0.429732,1.99125 -0.352607,3.07791 0.50868,0.50868 1.264933,0.29873 1.941712,0.30134 0.23509,-5.3e-4 0.47018,-0.001 0.71239,-0.002 0.35967,3.8e-4 0.35967,3.8e-4 0.7266,7.7e-4 0.50801,1.8e-4 1.01603,-3.1e-4 1.52404,-0.001 0.78045,-10e-4 1.56087,-10e-6 2.34133,0.002 0.4923,-1.7e-4 0.98461,-5.1e-4 1.47691,-0.001 0.35263,8e-4 0.35263,8e-4 0.71239,0.002 1.0549,0.10236 1.0549,0.10236 1.94171,-0.30135 -0.11426,-2.30003 -0.77407,-4.48387 -1.37149,-6.69519 -0.11117,-0.41584 -0.22223,-0.83171 -0.33319,-1.24761 -0.23175,-0.86713 -0.46472,-1.73392 -0.6986,-2.60048 -0.29965,-1.11062 -0.5964,-2.221993 -0.89228,-3.333625 -0.22839,-0.856905 -0.4582,-1.713423 -0.68846,-2.569826 -0.11002,-0.409822 -0.21962,-0.819758 -0.32879,-1.229808 -0.1524,-0.571518 -0.30669,-1.142491 -0.46151,-1.713358 -0.0873,-0.324776 -0.17466,-0.649552 -0.26464,-0.984169 -0.22409,-0.82878 -0.22409,-0.82878 -0.78187,-1.5864133 z M 20.516504,32.028797 c 2.642617,4.66151 5.347649,9.2887 8.090656,13.89179 0.600362,1.00883 1.195303,2.01687 1.74957,3.05188 0.157913,0.29127 0.315826,0.58254 0.478524,0.88264 0.125511,0.24215 0.251023,0.48431 0.380338,0.7338 0.373449,0.54548 0.373449,0.54548 1.003944,0.6092 1.050941,-0.1712 1.574687,-0.79681 2.28061,-1.53834 0.214595,-0.2174 0.214595,-0.2174 0.433525,-0.4392 0.456074,-0.46346 0.907339,-0.93131 1.358614,-1.39945 0.305617,-0.31225 0.611538,-0.62421 0.917773,-0.93586 0.561956,-0.57275 1.122127,-1.14713 1.68013,-1.72373 0.486197,-0.50129 0.973941,-0.99967 1.470066,-1.49106 -0.346799,-1.0404 -0.732333,-1.13667 -1.678451,-1.66708 -0.299476,-0.16945 -0.598952,-0.33889 -0.907503,-0.51347 -0.328615,-0.1827 -0.657256,-0.36535 -0.985921,-0.54796 -0.336858,-0.18951 -0.673593,-0.37923 -1.01021,-0.56916 -0.862688,-0.48597 -1.726947,-0.96906 -2.591815,-1.45113 -0.762558,-0.42525 -1.524235,-0.85206 -2.285988,-1.27874 -0.827671,-0.46351 -1.655507,-0.92671 -2.484151,-1.38848 -1.972995,-1.10089 -3.930557,-2.22642 -5.873543,-3.37951 -0.948801,-0.62184 -0.948801,-0.62184 -2.026168,-0.84614 z m 91.862096,0.54571 c -0.21076,0.12139 -0.42151,0.24279 -0.63866,0.36787 -0.23194,0.13508 -0.46389,0.27016 -0.70286,0.40934 -0.50673,0.29257 -1.0135,0.58505 -1.52032,0.87747 -0.27247,0.15761 -0.54494,0.31523 -0.82566,0.47762 -1.04415,0.60195 -2.09144,1.19829 -3.13913,1.79406 -1.25398,0.71329 -2.50604,1.42986 -3.75705,2.14834 -0.75492,0.43344 -1.51065,0.86534 -2.267734,1.295 -0.82297,0.46727 -1.64344,0.93866 -2.46342,1.41116 -0.24674,0.13879 -0.49347,0.27758 -0.74769,0.42058 -0.22359,0.12997 -0.44718,0.25993 -0.67754,0.39384 -0.19533,0.11161 -0.39065,0.22322 -0.59189,0.33822 -0.46798,0.34476 -0.46798,0.34476 -0.73297,0.84213 0.0364,0.98668 0.77643,1.52765 1.44475,2.18378 0.1493,0.15057 0.2986,0.30113 0.45242,0.45626 0.31715,0.31806 0.63599,0.63444 0.95634,0.94928 0.48822,0.48116 0.96902,0.96893 1.44946,1.45785 0.30912,0.30825 0.61865,0.61608 0.92863,0.92346 0.21466,0.21868 0.21466,0.21868 0.43366,0.44178 0.907094,0.87977 1.555614,1.24465 2.822984,1.31625 1.74588,-2.87994 3.44957,-5.78438 5.15014,-8.6912 0.91507,-1.5638 1.83176,-3.12652 2.75636,-4.68472 0.1568,-0.26431 0.31361,-0.52861 0.47516,-0.80092 0.29047,-0.48901 0.58138,-0.97776 0.87282,-1.46619 0.66395,-1.118 1.29711,-2.23363 1.85802,-3.40697 -0.66898,0 -0.95742,0.21018 -1.53582,0.54571 z m -50.85168,31.73346 c -1.081472,1.62957 -1.568504,3.05902 -1.322916,5.02708 0.613171,2.08733 1.402573,3.59894 3.323832,4.69636 1.63929,0.87355 3.03272,1.06791 4.87825,0.85989 1.96518,-0.6086 3.34473,-1.75518 4.49792,-3.43958 0.89279,-1.70794 0.76183,-3.94134 0.24805,-5.75469 -1.17605,-1.97271 -2.45893,-3.44763 -4.74597,-4.03489 -2.71192,-0.41692 -5.1382,0.49523 -6.879166,2.64583 z m -29.633333,21.16667 c -1.335614,1.43942 -2.23919,3.2954 -3.183462,5.00596 -0.926109,1.6718 -1.895012,3.31726 -2.871482,4.95998 -0.277419,0.46671 -0.554413,0.93367 -0.831328,1.40068 -0.812056,1.36861 -1.626899,2.7354 -2.450626,4.097043 -0.125874,0.2096 -0.251748,0.41921 -0.381436,0.63516 -0.22883,0.38086 -0.459345,0.7607 -0.691819,1.13934 -0.250364,0.41825 -0.479112,0.84933 -0.702347,1.28267 0.08731,0.17463 0.174625,0.34925 0.264583,0.52917 0.176523,-0.10221 0.353045,-0.20443 0.534916,-0.30974 0.84126,-0.48687 1.682722,-0.97339 2.524329,-1.45966 0.155003,-0.0896 0.310006,-0.17913 0.469707,-0.27142 1.900048,-1.0974 3.803659,-2.18773 5.716285,-3.263123 0.987425,-0.55524 1.973221,-1.11332 2.958411,-1.67251 0.528327,-0.29986 1.057002,-0.59911 1.58595,-0.89788 0.818513,-0.46396 1.634139,-0.93264 2.449204,-1.40263 0.251962,-0.14192 0.503923,-0.28385 0.76352,-0.43007 0.230303,-0.134 0.460607,-0.26799 0.69789,-0.40605 0.305615,-0.175 0.305615,-0.175 0.617404,-0.35353 0.490466,-0.35314 0.490466,-0.35314 0.746595,-0.86907 -0.0235,-0.94363 -0.616356,-1.3251 -1.273049,-1.9679 -0.132309,-0.13107 -0.264618,-0.26213 -0.400936,-0.39717 -0.424908,-0.41925 -0.854252,-0.83363 -1.283715,-1.24821 -0.283474,-0.27911 -0.566664,-0.5585 -0.849561,-0.83819 -1.922683,-2.22237 -1.922683,-2.22237 -4.409033,-3.26285 z m 68.916723,0.75757 c -0.18617,0.16939 -0.37235,0.33877 -0.56417,0.51328 -1.150554,1.07998 -2.289124,2.16981 -3.413884,3.27667 -0.24505,0.23517 -0.49011,0.47033 -0.74259,0.71262 -0.34507,0.34047 -0.34507,0.34047 -0.69711,0.68781 -0.20961,0.20437 -0.41921,0.40873 -0.63517,0.61928 -0.46909,0.53045 -0.46909,0.53045 -0.4512,1.11751 0.44453,0.78316 1.0457,1.07187 1.81811,1.524 0.23152,0.13694 0.23152,0.13694 0.46771,0.27665 0.48014,0.28207 0.96307,0.55859 1.44741,0.83336 0.28057,0.15936 0.56114,0.31872 0.85021,0.48291 0.844,0.47228 1.691314,0.93802 2.539774,1.40224 2.69854,1.48621 5.37138,3.009433 8.02257,4.579183 1.37681,0.81211 2.75829,1.57166 4.19787,2.26692 -0.32954,-0.86251 -0.69502,-1.66235 -1.15445,-2.4629 -0.12379,-0.21638 -0.24757,-0.43277 -0.37511,-0.65571 -0.13372,-0.23143 -0.26743,-0.46287 -0.40521,-0.70131 -0.21055,-0.36634 -0.21055,-0.36634 -0.42536,-0.740083 -1.4255,-2.47348 -2.8789,-4.9303 -4.33662,-7.38488 -0.47229,-0.79785 -0.94157,-1.59742 -1.41025,-2.3974 -0.15708,-0.26759 -0.31416,-0.53517 -0.476,-0.81087 -0.30253,-0.5155 -0.60447,-1.03135 -0.90576,-1.54758 -0.13577,-0.23092 -0.27153,-0.46184 -0.41141,-0.69976 -0.11944,-0.20404 -0.23887,-0.40808 -0.36193,-0.61831 -0.31822,-0.53685 -0.31822,-0.53685 -0.8504,-1.0312 -0.94568,0 -1.05006,0.14099 -1.72703,0.75757 z M 61.262337,104.78922 c -0.462571,0.68498 -0.538651,0.99238 -0.41912,1.82362 0.08259,0.2967 0.165176,0.5934 0.250267,0.89909 0.04467,0.16452 0.08935,0.32905 0.135376,0.49856 0.148808,0.54444 0.302973,1.0872 0.457224,1.63012 0.105324,0.38103 0.210316,0.76216 0.314992,1.14338 0.277229,1.00605 0.559035,2.01077 0.84179,3.01528 0.28315,1.00906 0.56188,2.01935 0.84103,3.02953 0.94108,3.3996 1.89766,6.79466 2.87011,10.18542 0.57449,-0.86174 0.81134,-1.67105 1.075,-2.65597 0.0517,-0.18853 0.10338,-0.37707 0.15663,-0.57131 0.17043,-0.62331 0.33868,-1.24717 0.50676,-1.87111 0.11782,-0.43405 0.2357,-0.86809 0.35366,-1.3021 0.24695,-0.91009 0.49278,-1.82047 0.73788,-2.73106 0.31377,-1.16522 0.63068,-2.32956 0.94848,-3.49369 0.24427,-0.89643 0.48669,-1.79336 0.72856,-2.69045 0.11606,-0.42939 0.23273,-0.85861 0.35004,-1.28766 0.16408,-0.60104 0.32558,-1.20272 0.48646,-1.80463 0.0487,-0.17613 0.0973,-0.35225 0.14742,-0.53371 0.27147,-1.0284 0.40165,-1.9556 0.32994,-3.01872 -0.32319,-0.38371 -0.32319,-0.38371 -1.29042,-0.29462 -0.45767,4e-5 -0.91533,0.002 -1.37298,0.004 -0.24041,3.7e-4 -0.48081,7.4e-4 -0.72851,0.001 -0.77106,0.001 -1.54211,0.005 -2.31317,0.008 -0.52141,0.001 -1.04283,0.003 -1.56424,0.004 -1.28107,0.003 -2.562121,0.007 -3.843179,0.0129 z"
       fill="#000000"
       id="path1"
       style="stroke-width:0.264583" /></g></svg>
